<mxfile host="app.diagrams.net" modified="2024-03-08T07:52:48.530Z" agent="Mozilla/5.0 (Macintosh; Intel Mac OS X 10_15_7) AppleWebKit/537.36 (KHTML, like Gecko) Chrome/122.0.0.0 Safari/537.36" etag="UheDPOuvxT-Fglu1hjc2" version="23.1.6" type="device">
  <diagram name="Page-1" id="Yf-f4svTu6EkYCENZoVJ">
    <mxGraphModel dx="318" dy="213" grid="1" gridSize="10" guides="1" tooltips="1" connect="1" arrows="1" fold="1" page="1" pageScale="1" pageWidth="827" pageHeight="1169" math="0" shadow="0">
      <root>
        <mxCell id="0" />
        <mxCell id="1" parent="0" />
        <mxCell id="3g2hXZAhS3rrBAWU3Zbx-1" value="" style="rounded=0;whiteSpace=wrap;html=1;strokeColor=none;fillColor=none;" vertex="1" parent="1">
          <mxGeometry x="390" y="80" width="130" height="440" as="geometry" />
        </mxCell>
        <mxCell id="3g2hXZAhS3rrBAWU3Zbx-2" value="" style="rounded=0;whiteSpace=wrap;html=1;fillColor=#1A1A1A;strokeColor=none;" vertex="1" parent="1">
          <mxGeometry x="390" y="80" width="130" height="10" as="geometry" />
        </mxCell>
        <mxCell id="3g2hXZAhS3rrBAWU3Zbx-3" value="&lt;font style=&quot;font-size: 4px;&quot; color=&quot;#f5f5f6&quot;&gt;Logo&lt;/font&gt;" style="text;html=1;align=center;verticalAlign=middle;whiteSpace=wrap;rounded=0;" vertex="1" parent="1">
          <mxGeometry x="388" y="82" width="20" as="geometry" />
        </mxCell>
        <mxCell id="3g2hXZAhS3rrBAWU3Zbx-4" value="&lt;font style=&quot;&quot; color=&quot;#f5f5f6&quot;&gt;&lt;font style=&quot;font-size: 3px;&quot;&gt;HOME&lt;/font&gt;&lt;br&gt;&lt;/font&gt;" style="text;html=1;align=center;verticalAlign=middle;whiteSpace=wrap;rounded=0;" vertex="1" parent="1">
          <mxGeometry x="411" y="82" width="20" as="geometry" />
        </mxCell>
        <mxCell id="3g2hXZAhS3rrBAWU3Zbx-5" value="&lt;font style=&quot;font-size: 3px;&quot; color=&quot;#f5f5f6&quot;&gt;SHOP BY CATEGORY&lt;br&gt;&lt;br&gt;&lt;/font&gt;" style="text;html=1;align=center;verticalAlign=middle;whiteSpace=wrap;rounded=0;" vertex="1" parent="1">
          <mxGeometry x="406" y="89" width="85" as="geometry" />
        </mxCell>
        <mxCell id="3g2hXZAhS3rrBAWU3Zbx-6" value="&lt;font style=&quot;&quot; color=&quot;#f5f5f6&quot;&gt;&lt;font style=&quot;font-size: 3px;&quot;&gt;COLECTIONS&lt;/font&gt;&lt;br&gt;&lt;/font&gt;" style="text;html=1;align=center;verticalAlign=middle;whiteSpace=wrap;rounded=0;" vertex="1" parent="1">
          <mxGeometry x="471" y="82" width="20" as="geometry" />
        </mxCell>
        <mxCell id="3g2hXZAhS3rrBAWU3Zbx-9" value="&lt;font style=&quot;&quot; color=&quot;#f5f5f6&quot;&gt;&lt;font style=&quot;font-size: 3px;&quot;&gt;CART&lt;/font&gt;&lt;br&gt;&lt;/font&gt;" style="text;html=1;align=center;verticalAlign=middle;whiteSpace=wrap;rounded=0;" vertex="1" parent="1">
          <mxGeometry x="502" y="82" width="20" as="geometry" />
        </mxCell>
        <mxCell id="3g2hXZAhS3rrBAWU3Zbx-10" value="" style="rounded=0;whiteSpace=wrap;html=1;strokeColor=none;fillColor=#4D4D4D;" vertex="1" parent="1">
          <mxGeometry x="390" y="90" width="130" height="60" as="geometry" />
        </mxCell>
        <mxCell id="3g2hXZAhS3rrBAWU3Zbx-13" value="" style="rounded=0;whiteSpace=wrap;html=1;strokeColor=none;fillColor=#1A1A1A;" vertex="1" parent="1">
          <mxGeometry x="390" y="150" width="130" height="60" as="geometry" />
        </mxCell>
        <mxCell id="3g2hXZAhS3rrBAWU3Zbx-15" value="&lt;font style=&quot;&quot; color=&quot;#f5f5f6&quot;&gt;&lt;span style=&quot;font-size: 3px;&quot;&gt;BESTSELLERS&lt;/span&gt;&lt;br&gt;&lt;/font&gt;" style="text;html=1;align=center;verticalAlign=middle;whiteSpace=wrap;rounded=0;" vertex="1" parent="1">
          <mxGeometry x="445" y="153" width="20" as="geometry" />
        </mxCell>
        <mxCell id="3g2hXZAhS3rrBAWU3Zbx-16" value="" style="rounded=0;whiteSpace=wrap;html=1;strokeColor=none;fillColor=#1A1A1A;" vertex="1" parent="1">
          <mxGeometry x="390" y="210" width="130" height="60" as="geometry" />
        </mxCell>
        <mxCell id="3g2hXZAhS3rrBAWU3Zbx-17" value="" style="whiteSpace=wrap;html=1;aspect=fixed;strokeColor=none;fillColor=#4D4D4D;" vertex="1" parent="1">
          <mxGeometry x="404" y="170" width="20" height="20" as="geometry" />
        </mxCell>
        <mxCell id="3g2hXZAhS3rrBAWU3Zbx-18" value="" style="whiteSpace=wrap;html=1;aspect=fixed;strokeColor=none;fillColor=#4D4D4D;" vertex="1" parent="1">
          <mxGeometry x="432" y="170" width="20" height="20" as="geometry" />
        </mxCell>
        <mxCell id="3g2hXZAhS3rrBAWU3Zbx-19" value="" style="whiteSpace=wrap;html=1;aspect=fixed;strokeColor=none;fillColor=#4D4D4D;" vertex="1" parent="1">
          <mxGeometry x="460" y="170" width="20" height="20" as="geometry" />
        </mxCell>
        <mxCell id="3g2hXZAhS3rrBAWU3Zbx-20" value="" style="whiteSpace=wrap;html=1;aspect=fixed;strokeColor=none;fillColor=#4D4D4D;" vertex="1" parent="1">
          <mxGeometry x="487" y="170" width="20" height="20" as="geometry" />
        </mxCell>
        <mxCell id="3g2hXZAhS3rrBAWU3Zbx-22" value="" style="whiteSpace=wrap;html=1;aspect=fixed;strokeColor=none;fillColor=#4D4D4D;" vertex="1" parent="1">
          <mxGeometry x="404" y="198" width="20" height="20" as="geometry" />
        </mxCell>
        <mxCell id="3g2hXZAhS3rrBAWU3Zbx-23" value="" style="whiteSpace=wrap;html=1;aspect=fixed;strokeColor=none;fillColor=#4D4D4D;" vertex="1" parent="1">
          <mxGeometry x="432" y="198" width="20" height="20" as="geometry" />
        </mxCell>
        <mxCell id="3g2hXZAhS3rrBAWU3Zbx-24" value="" style="whiteSpace=wrap;html=1;aspect=fixed;strokeColor=none;fillColor=#4D4D4D;" vertex="1" parent="1">
          <mxGeometry x="460" y="198" width="20" height="20" as="geometry" />
        </mxCell>
        <mxCell id="3g2hXZAhS3rrBAWU3Zbx-25" value="" style="whiteSpace=wrap;html=1;aspect=fixed;strokeColor=none;fillColor=#4D4D4D;" vertex="1" parent="1">
          <mxGeometry x="487" y="198" width="20" height="20" as="geometry" />
        </mxCell>
        <mxCell id="3g2hXZAhS3rrBAWU3Zbx-26" value="" style="rounded=0;whiteSpace=wrap;html=1;strokeColor=none;fillColor=#4D4D4D;" vertex="1" parent="1">
          <mxGeometry x="442.25" y="228" width="25.5" height="12" as="geometry" />
        </mxCell>
        <mxCell id="3g2hXZAhS3rrBAWU3Zbx-27" value="&lt;font color=&quot;#f5f5f6&quot; style=&quot;font-size: 3px;&quot;&gt;VIEW ALL&lt;/font&gt;" style="text;html=1;align=center;verticalAlign=middle;whiteSpace=wrap;rounded=0;" vertex="1" parent="1">
          <mxGeometry x="443.5" y="226" width="23" height="10" as="geometry" />
        </mxCell>
        <mxCell id="3g2hXZAhS3rrBAWU3Zbx-29" value="" style="rounded=0;whiteSpace=wrap;html=1;strokeColor=none;fillColor=#1A1A1A;" vertex="1" parent="1">
          <mxGeometry x="390" y="270" width="130" height="210" as="geometry" />
        </mxCell>
        <mxCell id="3g2hXZAhS3rrBAWU3Zbx-30" value="" style="rounded=0;whiteSpace=wrap;html=1;strokeColor=none;fillColor=#575657;" vertex="1" parent="1">
          <mxGeometry x="390" y="250" width="130" height="60" as="geometry" />
        </mxCell>
        <mxCell id="3g2hXZAhS3rrBAWU3Zbx-31" value="&lt;font color=&quot;#f5f5f6&quot; style=&quot;font-size: 3px;&quot;&gt;SPOTLIGHT ON&lt;br&gt;&lt;/font&gt;" style="text;html=1;align=center;verticalAlign=middle;whiteSpace=wrap;rounded=0;" vertex="1" parent="1">
          <mxGeometry x="467.75" y="260" width="47" height="10" as="geometry" />
        </mxCell>
        <mxCell id="3g2hXZAhS3rrBAWU3Zbx-32" value="&lt;font color=&quot;#f5f5f6&quot; style=&quot;font-size: 3px;&quot;&gt;FAIRYTALE COLLECTION&lt;br&gt;&lt;br&gt;&lt;/font&gt;" style="text;html=1;align=center;verticalAlign=middle;whiteSpace=wrap;rounded=0;" vertex="1" parent="1">
          <mxGeometry x="467.5" y="274" width="47" height="10" as="geometry" />
        </mxCell>
        <mxCell id="3g2hXZAhS3rrBAWU3Zbx-33" value="" style="rounded=0;whiteSpace=wrap;html=1;strokeColor=none;" vertex="1" parent="1">
          <mxGeometry x="482.25" y="281" width="18" height="10" as="geometry" />
        </mxCell>
        <mxCell id="3g2hXZAhS3rrBAWU3Zbx-34" value="&lt;font color=&quot;#1a1a1a&quot; style=&quot;font-size: 2px;&quot;&gt;SHOP NOW&lt;/font&gt;" style="text;html=1;align=center;verticalAlign=middle;whiteSpace=wrap;rounded=0;" vertex="1" parent="1">
          <mxGeometry x="479.5" y="278" width="23" height="10" as="geometry" />
        </mxCell>
        <mxCell id="3g2hXZAhS3rrBAWU3Zbx-35" value="" style="rounded=0;whiteSpace=wrap;html=1;strokeColor=none;fillColor=#666666;" vertex="1" parent="1">
          <mxGeometry x="390" y="310" width="130" height="60" as="geometry" />
        </mxCell>
        <mxCell id="3g2hXZAhS3rrBAWU3Zbx-38" value="" style="rounded=1;whiteSpace=wrap;html=1;strokeColor=none;fillColor=#1A1A1A;" vertex="1" parent="1">
          <mxGeometry x="460" y="325" width="50" height="30" as="geometry" />
        </mxCell>
        <mxCell id="3g2hXZAhS3rrBAWU3Zbx-39" value="&lt;font style=&quot;font-size: 4px;&quot; color=&quot;#f5f5f6&quot;&gt;TESTIMONIALS&lt;/font&gt;" style="text;html=1;align=center;verticalAlign=middle;whiteSpace=wrap;rounded=0;" vertex="1" parent="1">
          <mxGeometry x="401" y="320" width="40" height="20" as="geometry" />
        </mxCell>
        <mxCell id="3g2hXZAhS3rrBAWU3Zbx-40" value="&lt;p style=&quot;line-height: 0%;&quot;&gt;&lt;font style=&quot;&quot;&gt;&lt;font style=&quot;font-size: 2px;&quot; color=&quot;#f5f5f6&quot;&gt;Lorem ipsum dolor sit amet, consectetur adipisicing elit, sed do eiusmod tempor incididunt ut labore et dolore magna aliqua. Ut enim ad minim veniam, quis nostrud exercitation ullamco laboris nisi ut aliquip ex ea commodo consequat.&amp;nbsp;&lt;/font&gt;&lt;br&gt;&lt;/font&gt;&lt;/p&gt;" style="text;spacingTop=-5;whiteSpace=wrap;html=1;align=left;fontSize=12;fontFamily=Helvetica;fillColor=none;strokeColor=none;" vertex="1" parent="1">
          <mxGeometry x="460" y="315" width="50" height="40" as="geometry" />
        </mxCell>
        <mxCell id="3g2hXZAhS3rrBAWU3Zbx-45" value="&lt;font style=&quot;font-size: 2px;&quot;&gt;&lt;u&gt;NEXT&lt;/u&gt;&lt;/font&gt;" style="text;html=1;align=center;verticalAlign=middle;whiteSpace=wrap;rounded=0;" vertex="1" parent="1">
          <mxGeometry x="416" y="331" width="20" height="10" as="geometry" />
        </mxCell>
        <mxCell id="3g2hXZAhS3rrBAWU3Zbx-46" value="&lt;font style=&quot;font-size: 2px;&quot;&gt;&lt;u&gt;PREV&lt;/u&gt;&lt;/font&gt;" style="text;html=1;align=center;verticalAlign=middle;whiteSpace=wrap;rounded=0;" vertex="1" parent="1">
          <mxGeometry x="404" y="331" width="20" height="10" as="geometry" />
        </mxCell>
        <mxCell id="3g2hXZAhS3rrBAWU3Zbx-47" value="" style="rounded=0;whiteSpace=wrap;html=1;strokeColor=none;fillColor=#1A1A1A;" vertex="1" parent="1">
          <mxGeometry x="390" y="370" width="130" height="60" as="geometry" />
        </mxCell>
        <mxCell id="3g2hXZAhS3rrBAWU3Zbx-48" value="&lt;font style=&quot;&quot; color=&quot;#f5f5f6&quot;&gt;&lt;span style=&quot;font-size: 3px;&quot;&gt;CATEGORIES&lt;/span&gt;&lt;br&gt;&lt;/font&gt;" style="text;html=1;align=center;verticalAlign=middle;whiteSpace=wrap;rounded=0;" vertex="1" parent="1">
          <mxGeometry x="443.5" y="375" width="20" as="geometry" />
        </mxCell>
        <mxCell id="3g2hXZAhS3rrBAWU3Zbx-49" value="" style="whiteSpace=wrap;html=1;aspect=fixed;strokeColor=none;fillColor=#4D4D4D;" vertex="1" parent="1">
          <mxGeometry x="404" y="390" width="20" height="20" as="geometry" />
        </mxCell>
        <mxCell id="3g2hXZAhS3rrBAWU3Zbx-50" value="" style="whiteSpace=wrap;html=1;aspect=fixed;strokeColor=none;fillColor=#4D4D4D;" vertex="1" parent="1">
          <mxGeometry x="432" y="390" width="20" height="20" as="geometry" />
        </mxCell>
        <mxCell id="3g2hXZAhS3rrBAWU3Zbx-51" value="" style="whiteSpace=wrap;html=1;aspect=fixed;strokeColor=none;fillColor=#4D4D4D;" vertex="1" parent="1">
          <mxGeometry x="459.5" y="390" width="20" height="20" as="geometry" />
        </mxCell>
        <mxCell id="3g2hXZAhS3rrBAWU3Zbx-52" value="" style="whiteSpace=wrap;html=1;aspect=fixed;strokeColor=none;fillColor=#4D4D4D;" vertex="1" parent="1">
          <mxGeometry x="487" y="390" width="20" height="20" as="geometry" />
        </mxCell>
        <mxCell id="3g2hXZAhS3rrBAWU3Zbx-54" value="" style="rounded=0;whiteSpace=wrap;html=1;strokeColor=none;fillColor=#333333;" vertex="1" parent="1">
          <mxGeometry x="390" y="430" width="130" height="50" as="geometry" />
        </mxCell>
        <mxCell id="3g2hXZAhS3rrBAWU3Zbx-55" value="&lt;font style=&quot;font-size: 8px;&quot; color=&quot;#e6e3e6&quot;&gt;Logo&lt;/font&gt;" style="text;html=1;align=center;verticalAlign=middle;whiteSpace=wrap;rounded=0;strokeWidth=2;" vertex="1" parent="1">
          <mxGeometry x="384" y="430" width="60" height="30" as="geometry" />
        </mxCell>
        <mxCell id="3g2hXZAhS3rrBAWU3Zbx-57" value="&lt;font color=&quot;#ffffff&quot; style=&quot;font-size: 4px;&quot;&gt;ABOUT US&lt;br&gt;&lt;/font&gt;" style="text;html=1;align=center;verticalAlign=middle;whiteSpace=wrap;rounded=0;" vertex="1" parent="1">
          <mxGeometry x="416" y="420" width="60" height="30" as="geometry" />
        </mxCell>
        <mxCell id="3g2hXZAhS3rrBAWU3Zbx-58" value="&lt;font color=&quot;#ffffff&quot; style=&quot;font-size: 4px;&quot;&gt;MENU&lt;br&gt;&lt;/font&gt;" style="text;html=1;align=center;verticalAlign=middle;whiteSpace=wrap;rounded=0;" vertex="1" parent="1">
          <mxGeometry x="442" y="420" width="60" height="30" as="geometry" />
        </mxCell>
        <mxCell id="3g2hXZAhS3rrBAWU3Zbx-59" value="&lt;font color=&quot;#ffffff&quot; style=&quot;font-size: 4px;&quot;&gt;SHOP&lt;br&gt;&lt;/font&gt;" style="text;html=1;align=center;verticalAlign=middle;whiteSpace=wrap;rounded=0;" vertex="1" parent="1">
          <mxGeometry x="467.75" y="420" width="60" height="30" as="geometry" />
        </mxCell>
        <mxCell id="3g2hXZAhS3rrBAWU3Zbx-60" value="&lt;p style=&quot;line-height: 0%;&quot;&gt;&lt;font style=&quot;&quot;&gt;&lt;font style=&quot;font-size: 2px;&quot; color=&quot;#f5f5f6&quot;&gt;Lorem ipsum dolor sit amet, consectetur adipisicing elit, sed do eiusmod tempor incididunt ut labore et dolore magna aliqua. Ut enim ad minim veniam, quis nostrud exercitation ullamco .&lt;/font&gt;&lt;br&gt;&lt;/font&gt;&lt;/p&gt;" style="text;spacingTop=-5;whiteSpace=wrap;html=1;align=left;fontSize=12;fontFamily=Helvetica;fillColor=none;strokeColor=none;" vertex="1" parent="1">
          <mxGeometry x="434" y="426" width="24" height="40" as="geometry" />
        </mxCell>
        <mxCell id="3g2hXZAhS3rrBAWU3Zbx-61" value="&lt;font style=&quot;font-size: 3px;&quot; color=&quot;#ffffff&quot;&gt;Necklaces&lt;/font&gt;" style="text;html=1;align=center;verticalAlign=middle;whiteSpace=wrap;rounded=0;" vertex="1" parent="1">
          <mxGeometry x="485" y="437" width="30" height="10" as="geometry" />
        </mxCell>
        <mxCell id="3g2hXZAhS3rrBAWU3Zbx-62" value="&lt;div style=&quot;&quot;&gt;&lt;span style=&quot;font-size: 3px; color: rgb(255, 255, 255); background-color: initial;&quot;&gt;Earrings&lt;/span&gt;&lt;/div&gt;" style="text;html=1;align=left;verticalAlign=middle;whiteSpace=wrap;rounded=0;" vertex="1" parent="1">
          <mxGeometry x="491" y="443" width="30" height="10" as="geometry" />
        </mxCell>
        <mxCell id="3g2hXZAhS3rrBAWU3Zbx-63" value="&lt;div style=&quot;&quot;&gt;&lt;span style=&quot;font-size: 3px; color: rgb(255, 255, 255); background-color: initial;&quot;&gt;Bracelets&lt;/span&gt;&lt;/div&gt;" style="text;html=1;align=left;verticalAlign=middle;whiteSpace=wrap;rounded=0;" vertex="1" parent="1">
          <mxGeometry x="491" y="449" width="30" height="10" as="geometry" />
        </mxCell>
        <mxCell id="3g2hXZAhS3rrBAWU3Zbx-64" value="&lt;div style=&quot;&quot;&gt;&lt;span style=&quot;font-size: 3px; color: rgb(255, 255, 255); background-color: initial;&quot;&gt;Rings&lt;/span&gt;&lt;/div&gt;" style="text;html=1;align=left;verticalAlign=middle;whiteSpace=wrap;rounded=0;" vertex="1" parent="1">
          <mxGeometry x="491" y="455" width="30" height="10" as="geometry" />
        </mxCell>
        <mxCell id="3g2hXZAhS3rrBAWU3Zbx-65" value="" style="rounded=0;whiteSpace=wrap;html=1;strokeColor=none;fillColor=#575657;" vertex="1" parent="1">
          <mxGeometry x="390" y="480" width="130" height="10" as="geometry" />
        </mxCell>
        <mxCell id="3g2hXZAhS3rrBAWU3Zbx-66" value="&lt;font color=&quot;#ffffff&quot; style=&quot;font-size: 3px;&quot;&gt;Copyright text&lt;/font&gt;" style="text;html=1;align=center;verticalAlign=middle;whiteSpace=wrap;rounded=0;" vertex="1" parent="1">
          <mxGeometry x="399" y="467" width="110" height="30" as="geometry" />
        </mxCell>
      </root>
    </mxGraphModel>
  </diagram>
</mxfile>
